<?xml version="1.0" standalone="no"?>
<!DOCTYPE svg PUBLIC "-//W3C//DTD SVG 20010904//EN"
 "http://www.w3.org/TR/2001/REC-SVG-20010904/DTD/svg10.dtd">
<svg version="1.0" xmlns="http://www.w3.org/2000/svg"
 width="600.000000pt" height="600.000000pt" viewBox="0 0 600.000000 600.000000"
 preserveAspectRatio="xMidYMid meet">
<metadata>
Created by potrace 1.14, written by Peter Selinger 2001-2017
</metadata>
<g transform="translate(0.000000,600.000000) scale(0.100000,-0.100000)"
fill="#000000" stroke="none">
<path d="M70 5965 c0 -33 -2 -35 -35 -35 -34 0 -35 -1 -35 -40 0 -39 1 -40 35
-40 34 0 35 -1 35 -40 0 -39 -1 -40 -35 -40 -34 0 -35 -1 -35 -40 0 -39 1 -40
35 -40 34 0 35 -1 35 -40 0 -39 -1 -40 -35 -40 -34 0 -35 -1 -35 -40 0 -39 1
-40 35 -40 34 0 35 -1 35 -40 0 -39 -1 -40 -35 -40 -34 0 -35 -1 -35 -40 0
-39 1 -40 35 -40 19 0 35 -4 35 -10 0 -5 18 -10 40 -10 22 0 40 5 40 10 0 6
18 10 40 10 22 0 40 -4 40 -10 0 -5 18 -10 40 -10 22 0 40 5 40 10 0 6 18 10
40 10 22 0 40 -4 40 -10 0 -5 18 -10 40 -10 22 0 40 5 40 10 0 6 18 10 40 10
22 0 40 -4 40 -10 0 -5 18 -10 40 -10 22 0 40 5 40 10 0 6 18 10 40 10 22 0
40 -4 40 -10 0 -5 18 -10 40 -10 22 0 40 5 40 10 0 6 18 10 40 10 22 0 40 -4
40 -10 0 -5 18 -10 40 -10 22 0 40 5 40 10 0 6 18 10 40 10 22 0 40 -4 40 -10
0 -5 18 -10 40 -10 22 0 40 5 40 10 0 6 18 10 40 10 22 0 40 -4 40 -10 0 -5
18 -10 40 -10 22 0 40 5 40 10 0 6 18 10 40 10 22 0 40 -4 40 -10 0 -5 18 -10
40 -10 22 0 40 5 40 10 0 6 18 10 40 10 22 0 40 -4 40 -10 0 -5 18 -10 40 -10
22 0 40 5 40 10 0 6 18 10 40 10 22 0 40 -4 40 -10 0 -5 18 -10 40 -10 22 0
40 5 40 10 0 6 18 10 40 10 22 0 40 -4 40 -10 0 -5 18 -10 40 -10 22 0 40 5
40 10 0 6 18 10 40 10 22 0 40 -4 40 -10 0 -5 18 -10 40 -10 22 0 40 5 40 10
0 6 18 10 40 10 22 0 40 -4 40 -10 0 -5 18 -10 40 -10 22 0 40 5 40 10 0 6 18
10 40 10 22 0 40 -4 40 -10 0 -5 18 -10 40 -10 22 0 40 5 40 10 0 6 18 10 40
10 22 0 40 -4 40 -10 0 -5 18 -10 40 -10 22 0 40 5 40 10 0 6 18 10 40 10 22
0 40 -4 40 -10 0 -5 18 -10 40 -10 22 0 40 5 40 10 0 6 18 10 40 10 22 0 40
-4 40 -10 0 -5 18 -10 40 -10 22 0 40 5 40 10 0 6 18 10 40 10 22 0 40 -4 40
-10 0 -5 18 -10 40 -10 22 0 40 5 40 10 0 6 18 10 40 10 22 0 40 -4 40 -10 0
-5 18 -10 40 -10 22 0 40 5 40 10 0 6 18 10 40 10 22 0 40 -4 40 -10 0 -5 18
-10 40 -10 22 0 40 5 40 10 0 6 18 10 40 10 22 0 40 -4 40 -10 0 -5 18 -10 40
-10 22 0 40 5 40 10 0 6 18 10 40 10 22 0 40 -4 40 -10 0 -5 18 -10 40 -10 22
0 40 5 40 10 0 6 18 10 40 10 22 0 40 -4 40 -10 0 -5 18 -10 40 -10 22 0 40 5
40 10 0 6 18 10 40 10 22 0 40 -4 40 -10 0 -5 18 -10 40 -10 22 0 40 5 40 10
0 6 18 10 40 10 22 0 40 -4 40 -10 0 -5 18 -10 40 -10 22 0 40 5 40 10 0 6 18
10 40 10 22 0 40 -4 40 -10 0 -5 18 -10 40 -10 22 0 40 5 40 10 0 6 18 10 40
10 22 0 40 -4 40 -10 0 -5 18 -10 40 -10 22 0 40 5 40 10 0 6 18 10 40 10 22
0 40 -4 40 -10 0 -5 18 -10 40 -10 22 0 40 5 40 10 0 6 18 10 40 10 22 0 40
-4 40 -10 0 -5 18 -10 40 -10 22 0 40 5 40 10 0 6 18 10 40 10 22 0 40 -4 40
-10 0 -5 18 -10 40 -10 22 0 40 5 40 10 0 6 18 10 40 10 22 0 40 -4 40 -10 0
-5 18 -10 40 -10 22 0 40 5 40 10 0 6 18 10 40 10 22 0 40 -4 40 -10 0 -5 18
-10 40 -10 22 0 40 5 40 10 0 6 18 10 40 10 22 0 40 -4 40 -10 0 -5 18 -10 40
-10 22 0 40 5 40 10 0 6 18 10 40 10 22 0 40 -4 40 -10 0 -5 18 -10 40 -10 22
0 40 5 40 10 0 6 18 10 40 10 22 0 40 -4 40 -10 0 -5 18 -10 40 -10 22 0 40 5
40 10 0 6 18 10 40 10 22 0 40 -4 40 -10 0 -5 18 -10 40 -10 22 0 40 5 40 10
0 13 77 13 82 0 2 -5 3 137 3 318 0 180 -1 310 -3 290 -3 -37 -4 -38 -43 -38
-38 0 -39 1 -39 35 0 34 -1 35 -40 35 -39 0 -40 -1 -40 -35 0 -34 -1 -35 -40
-35 -39 0 -40 1 -40 35 0 34 -1 35 -40 35 -39 0 -40 -1 -40 -35 0 -34 -1 -35
-40 -35 -39 0 -40 1 -40 35 0 34 -1 35 -40 35 -39 0 -40 -1 -40 -35 0 -34 -1
-35 -40 -35 -39 0 -40 1 -40 35 0 34 -1 35 -40 35 -39 0 -40 -1 -40 -35 0 -34
-1 -35 -40 -35 -39 0 -40 1 -40 35 0 34 -1 35 -40 35 -39 0 -40 -1 -40 -35 0
-34 -1 -35 -40 -35 -39 0 -40 1 -40 35 0 34 -1 35 -40 35 -39 0 -40 -1 -40
-35 0 -34 -1 -35 -40 -35 -39 0 -40 1 -40 35 0 34 -1 35 -40 35 -39 0 -40 -1
-40 -35 0 -34 -1 -35 -40 -35 -39 0 -40 1 -40 35 0 34 -1 35 -40 35 -39 0 -40
-1 -40 -35 0 -34 -1 -35 -40 -35 -39 0 -40 1 -40 35 0 34 -1 35 -40 35 -39 0
-40 -1 -40 -35 0 -34 -1 -35 -40 -35 -39 0 -40 1 -40 35 0 34 -1 35 -40 35
-39 0 -40 -1 -40 -35 0 -34 -1 -35 -40 -35 -39 0 -40 1 -40 35 0 34 -1 35 -40
35 -39 0 -40 -1 -40 -35 0 -34 -1 -35 -40 -35 -39 0 -40 1 -40 35 0 34 -1 35
-40 35 -39 0 -40 -1 -40 -35 0 -34 -1 -35 -40 -35 -39 0 -40 1 -40 35 0 34 -1
35 -40 35 -39 0 -40 -1 -40 -35 0 -34 -1 -35 -40 -35 -39 0 -40 1 -40 35 0 34
-1 35 -40 35 -39 0 -40 -1 -40 -35 0 -34 -1 -35 -40 -35 -39 0 -40 1 -40 35 0
34 -1 35 -40 35 -39 0 -40 -1 -40 -35 0 -34 -1 -35 -40 -35 -39 0 -40 1 -40
35 0 34 -1 35 -40 35 -39 0 -40 -1 -40 -35 0 -34 -1 -35 -40 -35 -39 0 -40 1
-40 35 0 34 -1 35 -40 35 -39 0 -40 -1 -40 -35 0 -34 -1 -35 -40 -35 -39 0
-40 1 -40 35 0 34 -1 35 -40 35 -39 0 -40 -1 -40 -35 0 -34 -1 -35 -40 -35
-39 0 -40 1 -40 35 0 34 -1 35 -40 35 -39 0 -40 -1 -40 -35 0 -34 -1 -35 -40
-35 -39 0 -40 1 -40 35 0 34 -1 35 -40 35 -39 0 -40 -1 -40 -35 0 -34 -1 -35
-40 -35 -39 0 -40 1 -40 35 0 34 -1 35 -40 35 -39 0 -40 -1 -40 -35 0 -34 -1
-35 -40 -35 -39 0 -40 1 -40 35 0 34 -1 35 -40 35 -39 0 -40 -1 -40 -35 0 -34
-1 -35 -40 -35 -39 0 -40 1 -40 35 0 34 -1 35 -40 35 -39 0 -40 -1 -40 -35 0
-34 -1 -35 -40 -35 -39 0 -40 1 -40 35 0 34 -1 35 -40 35 -39 0 -40 -1 -40
-35 0 -34 -1 -35 -40 -35 -39 0 -40 1 -40 35 0 34 -1 35 -40 35 -39 0 -40 -1
-40 -35 0 -34 -1 -35 -40 -35 -39 0 -40 1 -40 35 0 34 -1 35 -40 35 -39 0 -40
-1 -40 -35 0 -34 -1 -35 -40 -35 -39 0 -40 1 -40 35 0 34 -1 35 -40 35 -39 0
-40 -1 -40 -35 0 -34 -1 -35 -40 -35 -39 0 -40 1 -40 35 0 34 -1 35 -40 35
-39 0 -40 -1 -40 -35 0 -34 -1 -35 -40 -35 -39 0 -40 1 -40 35 0 34 -1 35 -40
35 -39 0 -40 -1 -40 -35 0 -34 -1 -35 -40 -35 -39 0 -40 1 -40 35 0 34 -1 35
-40 35 -39 0 -40 -1 -40 -35 0 -34 -1 -35 -40 -35 -39 0 -40 1 -40 35 0 34 -1
35 -40 35 -39 0 -40 -1 -40 -35 0 -34 -1 -35 -40 -35 -39 0 -40 1 -40 35 0 34
-1 35 -40 35 -39 0 -40 -1 -40 -35 0 -34 -1 -35 -40 -35 -39 0 -40 1 -40 35 0
34 -1 35 -40 35 -39 0 -40 -1 -40 -35 0 -34 -1 -35 -40 -35 -39 0 -40 1 -40
35 0 34 -1 35 -40 35 -39 0 -40 -1 -40 -35 0 -34 -1 -35 -40 -35 -39 0 -40 1
-40 35 0 34 -1 35 -40 35 -39 0 -40 -1 -40 -35 0 -34 -1 -35 -40 -35 -39 0
-40 1 -40 35 0 34 -1 35 -40 35 -39 0 -40 -1 -40 -35 0 -34 -1 -35 -40 -35
-39 0 -40 1 -40 35 0 34 -1 35 -40 35 -39 0 -40 -1 -40 -35z m80 -75 l0 -40
40 0 40 0 0 40 0 40 40 0 40 0 0 -40 0 -40 40 0 40 0 0 40 0 40 40 0 40 0 0
-40 0 -40 40 0 40 0 0 40 0 40 40 0 40 0 0 -40 0 -40 40 0 40 0 0 40 0 40 40
0 40 0 0 -40 0 -40 40 0 40 0 0 40 0 40 40 0 40 0 0 -40 0 -40 40 0 40 0 0 40
0 40 40 0 40 0 0 -40 0 -40 40 0 40 0 0 40 0 40 40 0 40 0 0 -40 0 -40 40 0
40 0 0 40 0 40 40 0 40 0 0 -40 0 -40 40 0 40 0 0 40 0 40 40 0 40 0 0 -40 0
-40 40 0 40 0 0 40 0 40 40 0 40 0 0 -40 0 -40 40 0 40 0 0 40 0 40 40 0 40 0
0 -40 0 -40 40 0 40 0 0 40 0 40 40 0 40 0 0 -40 0 -40 40 0 40 0 0 40 0 40
40 0 40 0 0 -40 0 -40 40 0 40 0 0 40 0 40 40 0 40 0 0 -40 0 -40 40 0 40 0 0
40 0 40 40 0 40 0 0 -40 0 -40 40 0 40 0 0 40 0 40 40 0 40 0 0 -40 0 -40 40
0 40 0 0 40 0 40 40 0 40 0 0 -40 0 -40 40 0 40 0 0 40 0 40 40 0 40 0 0 -40
0 -40 40 0 40 0 0 40 0 40 40 0 40 0 0 -40 0 -40 40 0 40 0 0 40 0 40 40 0 40
0 0 -40 0 -40 40 0 40 0 0 40 0 40 40 0 40 0 0 -40 0 -40 40 0 40 0 0 40 0 40
40 0 40 0 0 -40 0 -40 40 0 40 0 0 40 0 40 40 0 40 0 0 -40 0 -40 40 0 40 0 0
40 0 40 40 0 40 0 0 -40 0 -40 40 0 40 0 0 40 0 40 40 0 40 0 0 -40 0 -40 40
0 40 0 0 40 0 40 40 0 40 0 0 -40 0 -40 40 0 40 0 0 40 0 40 40 0 40 0 0 -40
0 -40 40 0 40 0 0 40 0 40 40 0 40 0 0 -40 0 -40 40 0 40 0 0 40 0 40 40 0 40
0 0 -40 0 -40 40 0 40 0 0 40 0 40 40 0 40 0 0 -40 0 -40 40 0 40 0 0 40 0 40
40 0 40 0 0 -40 0 -40 40 0 40 0 0 40 0 40 40 0 40 0 0 -40 0 -40 40 0 40 0 0
40 0 40 40 0 40 0 0 -40 0 -40 40 0 40 0 0 40 0 40 40 0 40 0 0 -40 0 -40 40
0 40 0 0 40 0 40 40 0 40 0 0 -40 0 -40 40 0 40 0 0 40 0 40 40 0 40 0 0 -40
0 -40 40 0 40 0 0 -40 0 -40 -40 0 -40 0 0 -40 0 -40 40 0 40 0 0 -40 0 -40
-40 0 -40 0 0 -40 0 -40 40 0 40 0 0 -40 0 -40 -40 0 -40 0 0 -40 0 -40 -40 0
-40 0 0 40 0 40 -40 0 -40 0 0 -40 0 -40 -40 0 -40 0 0 40 0 40 -40 0 -40 0 0
-40 0 -40 -40 0 -40 0 0 40 0 40 -40 0 -40 0 0 -40 0 -40 -40 0 -40 0 0 40 0
40 -40 0 -40 0 0 -40 0 -40 -40 0 -40 0 0 40 0 40 -40 0 -40 0 0 -40 0 -40
-40 0 -40 0 0 40 0 40 -40 0 -40 0 0 -40 0 -40 -40 0 -40 0 0 40 0 40 -40 0
-40 0 0 -40 0 -40 -40 0 -40 0 0 40 0 40 -40 0 -40 0 0 -40 0 -40 -40 0 -40 0
0 40 0 40 -40 0 -40 0 0 -40 0 -40 -40 0 -40 0 0 40 0 40 -40 0 -40 0 0 -40 0
-40 -40 0 -40 0 0 40 0 40 -40 0 -40 0 0 -40 0 -40 -40 0 -40 0 0 40 0 40 -40
0 -40 0 0 -40 0 -40 -40 0 -40 0 0 40 0 40 -40 0 -40 0 0 -40 0 -40 -40 0 -40
0 0 40 0 40 -40 0 -40 0 0 -40 0 -40 -40 0 -40 0 0 40 0 40 -40 0 -40 0 0 -40
0 -40 -40 0 -40 0 0 40 0 40 -40 0 -40 0 0 -40 0 -40 -40 0 -40 0 0 40 0 40
-40 0 -40 0 0 -40 0 -40 -40 0 -40 0 0 40 0 40 -40 0 -40 0 0 -40 0 -40 -40 0
-40 0 0 40 0 40 -40 0 -40 0 0 -40 0 -40 -40 0 -40 0 0 40 0 40 -40 0 -40 0 0
-40 0 -40 -40 0 -40 0 0 40 0 40 -40 0 -40 0 0 -40 0 -40 -40 0 -40 0 0 40 0
40 -40 0 -40 0 0 -40 0 -40 -40 0 -40 0 0 40 0 40 -40 0 -40 0 0 -40 0 -40
-40 0 -40 0 0 40 0 40 -40 0 -40 0 0 -40 0 -40 -40 0 -40 0 0 40 0 40 -40 0
-40 0 0 -40 0 -40 -40 0 -40 0 0 40 0 40 -40 0 -40 0 0 -40 0 -40 -40 0 -40 0
0 40 0 40 -40 0 -40 0 0 -40 0 -40 -40 0 -40 0 0 40 0 40 -40 0 -40 0 0 -40 0
-40 -40 0 -40 0 0 40 0 40 -40 0 -40 0 0 -40 0 -40 -40 0 -40 0 0 40 0 40 -40
0 -40 0 0 -40 0 -40 -40 0 -40 0 0 40 0 40 -40 0 -40 0 0 -40 0 -40 -40 0 -40
0 0 40 0 40 -40 0 -40 0 0 -40 0 -40 -40 0 -40 0 0 40 0 40 -40 0 -40 0 0 -40
0 -40 -40 0 -40 0 0 40 0 40 -40 0 -40 0 0 -40 0 -40 -40 0 -40 0 0 40 0 40
-40 0 -40 0 0 -40 0 -40 -40 0 -40 0 0 40 0 40 -40 0 -40 0 0 -40 0 -40 -40 0
-40 0 0 40 0 40 40 0 40 0 0 40 0 40 -40 0 -40 0 0 40 0 40 40 0 40 0 0 40 0
40 -40 0 -40 0 0 40 0 40 40 0 40 0 0 40 0 40 -40 0 -40 0 0 40 0 40 40 0 40
0 0 -40z"/>
<path d="M230 5810 l0 -40 -40 0 -40 0 0 -40 0 -40 40 0 40 0 0 -40 0 -40 -40
0 -40 0 0 -40 0 -40 40 0 40 0 0 -40 0 -40 40 0 40 0 0 40 0 40 40 0 40 0 0
-40 0 -40 40 0 40 0 0 40 0 40 40 0 40 0 0 -40 0 -40 40 0 40 0 0 40 0 40 40
0 40 0 0 -40 0 -40 40 0 40 0 0 40 0 40 40 0 40 0 0 -40 0 -40 40 0 40 0 0 40
0 40 40 0 40 0 0 -40 0 -40 40 0 40 0 0 40 0 40 40 0 40 0 0 -40 0 -40 40 0
40 0 0 40 0 40 40 0 40 0 0 -40 0 -40 40 0 40 0 0 40 0 40 40 0 40 0 0 -40 0
-40 40 0 40 0 0 40 0 40 40 0 40 0 0 -40 0 -40 40 0 40 0 0 40 0 40 40 0 40 0
0 -40 0 -40 40 0 40 0 0 40 0 40 40 0 40 0 0 -40 0 -40 40 0 40 0 0 40 0 40
40 0 40 0 0 -40 0 -40 40 0 40 0 0 40 0 40 40 0 40 0 0 -40 0 -40 40 0 40 0 0
40 0 40 40 0 40 0 0 -40 0 -40 40 0 40 0 0 40 0 40 40 0 40 0 0 -40 0 -40 40
0 40 0 0 40 0 40 40 0 40 0 0 -40 0 -40 40 0 40 0 0 40 0 40 40 0 40 0 0 -40
0 -40 40 0 40 0 0 40 0 40 40 0 40 0 0 -40 0 -40 40 0 40 0 0 40 0 40 40 0 40
0 0 -40 0 -40 40 0 40 0 0 40 0 40 40 0 40 0 0 -40 0 -40 40 0 40 0 0 40 0 40
40 0 40 0 0 -40 0 -40 40 0 40 0 0 40 0 40 40 0 40 0 0 -40 0 -40 40 0 40 0 0
40 0 40 40 0 40 0 0 -40 0 -40 40 0 40 0 0 40 0 40 40 0 40 0 0 -40 0 -40 40
0 40 0 0 40 0 40 40 0 40 0 0 -40 0 -40 40 0 40 0 0 40 0 40 40 0 40 0 0 -40
0 -40 40 0 40 0 0 40 0 40 40 0 40 0 0 -40 0 -40 40 0 40 0 0 40 0 40 40 0 40
0 0 -40 0 -40 40 0 40 0 0 40 0 40 40 0 40 0 0 -40 0 -40 40 0 40 0 0 40 0 40
40 0 40 0 0 -40 0 -40 40 0 40 0 0 40 0 40 40 0 40 0 0 -40 0 -40 40 0 40 0 0
40 0 40 40 0 40 0 0 -40 0 -40 40 0 40 0 0 40 0 40 40 0 40 0 0 -40 0 -40 40
0 40 0 0 40 0 40 40 0 40 0 0 -40 0 -40 40 0 40 0 0 40 0 40 40 0 40 0 0 -40
0 -40 40 0 40 0 0 40 0 40 -40 0 -40 0 0 40 0 40 40 0 40 0 0 40 0 40 -40 0
-40 0 0 40 0 40 40 0 40 0 0 40 0 40 -40 0 -40 0 0 -40 0 -40 -40 0 -40 0 0
40 0 40 -40 0 -40 0 0 -40 0 -40 -40 0 -40 0 0 40 0 40 -40 0 -40 0 0 -40 0
-40 -40 0 -40 0 0 40 0 40 -40 0 -40 0 0 -40 0 -40 -40 0 -40 0 0 40 0 40 -40
0 -40 0 0 -40 0 -40 -40 0 -40 0 0 40 0 40 -40 0 -40 0 0 -40 0 -40 -40 0 -40
0 0 40 0 40 -40 0 -40 0 0 -40 0 -40 -40 0 -40 0 0 40 0 40 -40 0 -40 0 0 -40
0 -40 -40 0 -40 0 0 40 0 40 -40 0 -40 0 0 -40 0 -40 -40 0 -40 0 0 40 0 40
-40 0 -40 0 0 -40 0 -40 -40 0 -40 0 0 40 0 40 -40 0 -40 0 0 -40 0 -40 -40 0
-40 0 0 40 0 40 -40 0 -40 0 0 -40 0 -40 -40 0 -40 0 0 40 0 40 -40 0 -40 0 0
-40 0 -40 -40 0 -40 0 0 40 0 40 -40 0 -40 0 0 -40 0 -40 -40 0 -40 0 0 40 0
40 -40 0 -40 0 0 -40 0 -40 -40 0 -40 0 0 40 0 40 -40 0 -40 0 0 -40 0 -40
-40 0 -40 0 0 40 0 40 -40 0 -40 0 0 -40 0 -40 -40 0 -40 0 0 40 0 40 -40 0
-40 0 0 -40 0 -40 -40 0 -40 0 0 40 0 40 -40 0 -40 0 0 -40 0 -40 -40 0 -40 0
0 40 0 40 -40 0 -40 0 0 -40 0 -40 -40 0 -40 0 0 40 0 40 -40 0 -40 0 0 -40 0
-40 -40 0 -40 0 0 40 0 40 -40 0 -40 0 0 -40 0 -40 -40 0 -40 0 0 40 0 40 -40
0 -40 0 0 -40 0 -40 -40 0 -40 0 0 40 0 40 -40 0 -40 0 0 -40 0 -40 -40 0 -40
0 0 40 0 40 -40 0 -40 0 0 -40 0 -40 -40 0 -40 0 0 40 0 40 -40 0 -40 0 0 -40
0 -40 -40 0 -40 0 0 40 0 40 -40 0 -40 0 0 -40 0 -40 -40 0 -40 0 0 40 0 40
-40 0 -40 0 0 -40 0 -40 -40 0 -40 0 0 40 0 40 -40 0 -40 0 0 -40 0 -40 -40 0
-40 0 0 40 0 40 -40 0 -40 0 0 -40 0 -40 -40 0 -40 0 0 40 0 40 -40 0 -40 0 0
-40 0 -40 -40 0 -40 0 0 40 0 40 -40 0 -40 0 0 -40 0 -40 -40 0 -40 0 0 40 0
40 -40 0 -40 0 0 -40 0 -40 -40 0 -40 0 0 40 0 40 -40 0 -40 0 0 -40 0 -40
-40 0 -40 0 0 40 0 40 -40 0 -40 0 0 -40 0 -40 -40 0 -40 0 0 40 0 40 -40 0
-40 0 0 -40z m80 -80 l0 -40 40 0 40 0 0 40 0 40 40 0 40 0 0 -40 0 -40 40 0
40 0 0 40 0 40 40 0 40 0 0 -40 0 -40 40 0 40 0 0 40 0 40 40 0 40 0 0 -40 0
-40 40 0 40 0 0 40 0 40 40 0 40 0 0 -40 0 -40 40 0 40 0 0 40 0 40 40 0 40 0
0 -40 0 -40 40 0 40 0 0 40 0 40 40 0 40 0 0 -40 0 -40 40 0 40 0 0 40 0 40
40 0 40 0 0 -40 0 -40 40 0 40 0 0 40 0 40 40 0 40 0 0 -40 0 -40 40 0 40 0 0
40 0 40 40 0 40 0 0 -40 0 -40 40 0 40 0 0 40 0 40 40 0 40 0 0 -40 0 -40 40
0 40 0 0 40 0 40 40 0 40 0 0 -40 0 -40 40 0 40 0 0 40 0 40 40 0 40 0 0 -40
0 -40 40 0 40 0 0 40 0 40 40 0 40 0 0 -40 0 -40 40 0 40 0 0 40 0 40 40 0 40
0 0 -40 0 -40 40 0 40 0 0 40 0 40 40 0 40 0 0 -40 0 -40 40 0 40 0 0 40 0 40
40 0 40 0 0 -40 0 -40 40 0 40 0 0 40 0 40 40 0 40 0 0 -40 0 -40 40 0 40 0 0
40 0 40 40 0 40 0 0 -40 0 -40 40 0 40 0 0 40 0 40 40 0 40 0 0 -40 0 -40 40
0 40 0 0 40 0 40 40 0 40 0 0 -40 0 -40 40 0 40 0 0 40 0 40 40 0 40 0 0 -40
0 -40 40 0 40 0 0 40 0 40 40 0 40 0 0 -40 0 -40 40 0 40 0 0 40 0 40 40 0 40
0 0 -40 0 -40 40 0 40 0 0 40 0 40 40 0 40 0 0 -40 0 -40 40 0 40 0 0 40 0 40
40 0 40 0 0 -40 0 -40 40 0 40 0 0 40 0 40 40 0 40 0 0 -40 0 -40 40 0 40 0 0
40 0 40 40 0 40 0 0 -40 0 -40 40 0 40 0 0 40 0 40 40 0 40 0 0 -40 0 -40 40
0 40 0 0 40 0 40 40 0 40 0 0 -40 0 -40 40 0 40 0 0 40 0 40 40 0 40 0 0 -40
0 -40 40 0 40 0 0 40 0 40 40 0 40 0 0 -40 0 -40 40 0 40 0 0 40 0 40 40 0 40
0 0 -40 0 -40 40 0 40 0 0 40 0 40 40 0 40 0 0 -40 0 -40 40 0 40 0 0 40 0 40
40 0 40 0 0 -40 0 -40 40 0 40 0 0 -40 0 -40 -40 0 -40 0 0 -40 0 -40 -40 0
-40 0 0 40 0 40 -40 0 -40 0 0 -40 0 -40 -40 0 -40 0 0 40 0 40 -40 0 -40 0 0
-40 0 -40 -40 0 -40 0 0 40 0 40 -40 0 -40 0 0 -40 0 -40 -40 0 -40 0 0 40 0
40 -40 0 -40 0 0 -40 0 -40 -40 0 -40 0 0 40 0 40 -40 0 -40 0 0 -40 0 -40
-40 0 -40 0 0 40 0 40 -40 0 -40 0 0 -40 0 -40 -40 0 -40 0 0 40 0 40 -40 0
-40 0 0 -40 0 -40 -40 0 -40 0 0 40 0 40 -40 0 -40 0 0 -40 0 -40 -40 0 -40 0
0 40 0 40 -40 0 -40 0 0 -40 0 -40 -40 0 -40 0 0 40 0 40 -40 0 -40 0 0 -40 0
-40 -40 0 -40 0 0 40 0 40 -40 0 -40 0 0 -40 0 -40 -40 0 -40 0 0 40 0 40 -40
0 -40 0 0 -40 0 -40 -40 0 -40 0 0 40 0 40 -40 0 -40 0 0 -40 0 -40 -40 0 -40
0 0 40 0 40 -40 0 -40 0 0 -40 0 -40 -40 0 -40 0 0 40 0 40 -40 0 -40 0 0 -40
0 -40 -40 0 -40 0 0 40 0 40 -40 0 -40 0 0 -40 0 -40 -40 0 -40 0 0 40 0 40
-40 0 -40 0 0 -40 0 -40 -40 0 -40 0 0 40 0 40 -40 0 -40 0 0 -40 0 -40 -40 0
-40 0 0 40 0 40 -40 0 -40 0 0 -40 0 -40 -40 0 -40 0 0 40 0 40 -40 0 -40 0 0
-40 0 -40 -40 0 -40 0 0 40 0 40 -40 0 -40 0 0 -40 0 -40 -40 0 -40 0 0 40 0
40 -40 0 -40 0 0 -40 0 -40 -40 0 -40 0 0 40 0 40 -40 0 -40 0 0 -40 0 -40
-40 0 -40 0 0 40 0 40 -40 0 -40 0 0 -40 0 -40 -40 0 -40 0 0 40 0 40 -40 0
-40 0 0 -40 0 -40 -40 0 -40 0 0 40 0 40 -40 0 -40 0 0 -40 0 -40 -40 0 -40 0
0 40 0 40 -40 0 -40 0 0 -40 0 -40 -40 0 -40 0 0 40 0 40 -40 0 -40 0 0 -40 0
-40 -40 0 -40 0 0 40 0 40 -40 0 -40 0 0 -40 0 -40 -40 0 -40 0 0 40 0 40 -40
0 -40 0 0 -40 0 -40 -40 0 -40 0 0 40 0 40 -40 0 -40 0 0 -40 0 -40 -40 0 -40
0 0 40 0 40 -40 0 -40 0 0 -40 0 -40 -40 0 -40 0 0 40 0 40 -40 0 -40 0 0 -40
0 -40 -40 0 -40 0 0 40 0 40 -40 0 -40 0 0 -40 0 -40 -40 0 -40 0 0 40 0 40
40 0 40 0 0 40 0 40 -40 0 -40 0 0 40 0 40 40 0 40 0 0 -40z"/>
<path d="M390 5650 l0 -40 40 0 40 0 0 40 0 40 -40 0 -40 0 0 -40z"/>
<path d="M550 5650 l0 -40 40 0 40 0 0 40 0 40 -40 0 -40 0 0 -40z"/>
<path d="M710 5650 l0 -40 40 0 40 0 0 40 0 40 -40 0 -40 0 0 -40z"/>
<path d="M870 5650 l0 -40 40 0 40 0 0 40 0 40 -40 0 -40 0 0 -40z"/>
<path d="M1030 5650 l0 -40 40 0 40 0 0 40 0 40 -40 0 -40 0 0 -40z"/>
<path d="M1190 5650 l0 -40 40 0 40 0 0 40 0 40 -40 0 -40 0 0 -40z"/>
<path d="M1350 5650 l0 -40 40 0 40 0 0 40 0 40 -40 0 -40 0 0 -40z"/>
<path d="M1510 5650 l0 -40 40 0 40 0 0 40 0 40 -40 0 -40 0 0 -40z"/>
<path d="M1670 5650 l0 -40 40 0 40 0 0 40 0 40 -40 0 -40 0 0 -40z"/>
<path d="M1830 5650 l0 -40 40 0 40 0 0 40 0 40 -40 0 -40 0 0 -40z"/>
<path d="M1990 5650 l0 -40 40 0 40 0 0 40 0 40 -40 0 -40 0 0 -40z"/>
<path d="M2150 5650 l0 -40 40 0 40 0 0 40 0 40 -40 0 -40 0 0 -40z"/>
<path d="M2310 5650 l0 -40 40 0 40 0 0 40 0 40 -40 0 -40 0 0 -40z"/>
<path d="M2470 5650 l0 -40 40 0 40 0 0 40 0 40 -40 0 -40 0 0 -40z"/>
<path d="M2630 5650 l0 -40 40 0 40 0 0 40 0 40 -40 0 -40 0 0 -40z"/>
<path d="M2790 5650 l0 -40 40 0 40 0 0 40 0 40 -40 0 -40 0 0 -40z"/>
<path d="M2950 5650 l0 -40 40 0 40 0 0 40 0 40 -40 0 -40 0 0 -40z"/>
<path d="M3110 5650 l0 -40 40 0 40 0 0 40 0 40 -40 0 -40 0 0 -40z"/>
<path d="M3270 5650 l0 -40 40 0 40 0 0 40 0 40 -40 0 -40 0 0 -40z"/>
<path d="M3430 5650 l0 -40 40 0 40 0 0 40 0 40 -40 0 -40 0 0 -40z"/>
<path d="M3590 5650 l0 -40 40 0 40 0 0 40 0 40 -40 0 -40 0 0 -40z"/>
<path d="M3750 5650 l0 -40 40 0 40 0 0 40 0 40 -40 0 -40 0 0 -40z"/>
<path d="M3910 5650 l0 -40 40 0 40 0 0 40 0 40 -40 0 -40 0 0 -40z"/>
<path d="M4070 5650 l0 -40 40 0 40 0 0 40 0 40 -40 0 -40 0 0 -40z"/>
<path d="M4230 5650 l0 -40 40 0 40 0 0 40 0 40 -40 0 -40 0 0 -40z"/>
<path d="M4390 5650 l0 -40 40 0 40 0 0 40 0 40 -40 0 -40 0 0 -40z"/>
<path d="M4550 5650 l0 -40 40 0 40 0 0 40 0 40 -40 0 -40 0 0 -40z"/>
<path d="M4710 5650 l0 -40 40 0 40 0 0 40 0 40 -40 0 -40 0 0 -40z"/>
<path d="M4870 5650 l0 -40 40 0 40 0 0 40 0 40 -40 0 -40 0 0 -40z"/>
<path d="M5030 5650 l0 -40 40 0 40 0 0 40 0 40 -40 0 -40 0 0 -40z"/>
<path d="M5190 5650 l0 -40 40 0 40 0 0 40 0 40 -40 0 -40 0 0 -40z"/>
<path d="M5350 5650 l0 -40 40 0 40 0 0 40 0 40 -40 0 -40 0 0 -40z"/>
<path d="M5510 5650 l0 -40 40 0 40 0 0 40 0 40 -40 0 -40 0 0 -40z"/>
<path d="M5670 5650 l0 -40 40 0 40 0 0 40 0 40 -40 0 -40 0 0 -40z"/>
<path d="M2924 4790 c-35 -15 -104 -85 -104 -105 0 -3 -7 -14 -16 -22 -14 -15
-19 -12 -56 31 -55 64 -102 86 -181 86 -56 0 -69 -4 -110 -33 -56 -40 -103
-98 -112 -138 -8 -35 -15 -36 -41 -8 -10 12 -41 32 -68 46 -42 21 -57 24 -107
18 -96 -11 -188 -89 -205 -173 -7 -37 -9 -37 -57 -17 -130 54 -279 -36 -306
-185 -6 -35 -7 -35 -66 -41 -69 -7 -134 -36 -164 -75 -27 -35 -52 -120 -53
-181 0 -45 -3 -50 -43 -80 -63 -47 -99 -126 -92 -201 2 -31 13 -74 22 -94 18
-36 17 -37 -6 -85 -20 -42 -23 -64 -25 -178 -1 -80 4 -151 12 -185 7 -30 16
-75 19 -100 3 -25 12 -58 20 -74 20 -39 19 -58 -7 -103 -18 -30 -24 -56 -26
-123 -4 -161 -3 -189 14 -227 19 -43 46 -344 33 -379 -8 -23 58 -234 109 -344
86 -190 329 -413 601 -553 52 -26 100 -46 108 -43 8 3 12 2 9 -3 -11 -17 238
-101 414 -141 219 -49 283 -55 580 -54 280 0 287 1 435 31 394 83 638 185 883
367 183 137 284 260 369 451 70 155 84 214 94 390 6 88 15 183 21 211 6 29 8
65 4 80 -3 16 -10 70 -15 119 -5 50 -16 103 -24 118 -15 29 -12 61 12 106 7
12 16 49 20 84 5 34 17 82 26 107 13 34 15 59 10 105 -4 33 -9 96 -10 140 -2
49 -9 92 -19 110 -22 42 -20 68 10 127 21 41 25 62 22 99 -7 67 -50 149 -96
184 -38 29 -39 30 -39 95 0 40 -6 81 -17 105 -35 83 -124 145 -207 145 -35 0
-39 2 -39 26 0 88 -78 192 -161 214 -42 12 -109 9 -155 -5 -18 -6 -23 -1 -32
37 -14 55 -46 102 -95 142 -31 25 -49 31 -101 34 -71 5 -117 -7 -171 -44 l-36
-24 -10 28 c-25 69 -34 84 -70 116 -97 89 -262 66 -334 -46 -16 -26 -33 -47
-37 -47 -4 -1 -12 16 -17 37 -13 47 -62 99 -115 123 -53 24 -147 24 -202 -1z
m-15 -448 c57 -28 58 -56 7 -134 -18 -28 -18 -28 7 -28 16 0 46 20 86 55 52
46 68 55 100 55 132 0 20 -127 -118 -134 -49 -2 -52 -4 -101 -65 -53 -67 -60
-90 -33 -116 39 -40 173 7 173 61 0 22 -4 24 -43 24 -44 0 -67 -13 -67 -39 0
-11 4 -10 14 5 12 15 17 17 28 6 9 -9 10 -17 2 -30 -16 -25 -51 -27 -64 -3
-25 48 51 102 115 81 38 -13 50 -33 35 -61 -14 -24 -11 -24 41 6 48 27 104 32
132 11 9 -7 17 -16 17 -18 0 -3 -18 -24 -41 -46 -39 -39 -44 -62 -14 -62 18 0
74 57 86 87 6 16 13 21 21 16 7 -4 38 -8 69 -8 66 0 103 -24 96 -62 -5 -28 9
-31 16 -3 5 20 27 29 27 11 0 -5 22 -8 49 -8 102 2 131 -55 63 -123 -63 -64
-160 -74 -180 -19 -8 19 -11 17 -46 -26 -55 -66 -106 -81 -106 -30 0 16 16 35
50 61 27 21 48 39 47 41 -2 1 -20 -3 -40 -9 -46 -14 -87 1 -87 32 0 27 43 70
70 70 25 0 37 -25 20 -45 -15 -18 -31 -10 -23 10 8 21 -11 18 -31 -4 -24 -26
-13 -41 31 -41 69 0 138 66 109 106 -10 14 -26 17 -70 16 -31 -1 -61 -4 -66
-7 -4 -3 -23 -35 -41 -71 -18 -36 -48 -79 -67 -95 -62 -55 -113 -16 -52 40 29
26 30 31 18 50 -8 13 -19 19 -28 15 -41 -15 -71 -15 -95 0 -19 13 -24 22 -20
37 6 19 5 20 -22 6 -69 -36 -134 -29 -154 17 -16 35 -5 67 46 129 36 45 42 56
28 61 -10 4 -22 -2 -32 -16 -66 -96 -143 -147 -219 -148 -75 0 -122 37 -122
95 0 39 16 62 63 88 69 40 87 41 254 10 28 -5 34 -1 58 35 36 55 31 83 -19
100 -66 21 -157 -16 -126 -53 7 -8 21 -15 31 -15 11 0 19 7 19 15 0 8 9 15 20
15 31 0 24 -26 -12 -43 -28 -14 -35 -14 -60 -1 -37 19 -37 56 0 82 49 35 101
40 151 14z m-421 -306 c60 -16 117 -55 127 -87 9 -29 -20 -68 -74 -98 l-43
-23 31 -32 c58 -60 32 -124 -69 -176 -109 -55 -306 -44 -340 20 -6 12 -10 45
-9 74 1 29 -1 58 -5 64 -10 17 -91 15 -106 -3 -15 -18 -5 -35 21 -35 12 0 19
7 19 20 0 23 28 27 36 5 9 -23 -15 -45 -50 -45 -58 0 -76 46 -29 77 64 42 152
5 139 -60 -4 -17 -2 -26 4 -22 16 10 153 194 191 256 24 38 35 49 37 36 4 -17
-67 -122 -160 -237 -26 -33 -48 -65 -48 -70 0 -6 -7 -10 -15 -10 -23 0 -18
-24 11 -51 24 -22 33 -24 137 -24 103 0 116 2 164 27 90 48 105 93 49 147
l-33 32 -61 -11 c-73 -15 -112 -8 -112 20 0 27 32 33 113 22 74 -10 124 5 161
46 61 69 -77 141 -250 129 -92 -7 -134 -22 -134 -49 0 -24 56 -25 82 -1 10 9
21 13 24 10 11 -11 -16 -35 -52 -47 -29 -10 -39 -9 -59 4 -14 9 -25 22 -25 29
0 23 44 56 85 66 61 14 184 12 243 -3z m1188 -183 c-41 -60 -26 -110 25 -83
15 9 66 89 60 98 -6 10 1 23 12 20 12 -5 18 -45 19 -130 0 -34 -8 -61 -26 -92
-53 -90 -180 -113 -253 -44 -44 41 -22 86 50 103 66 17 148 -25 127 -65 -21
-39 -130 -35 -130 5 0 19 34 20 49 1 14 -16 61 -9 61 10 0 20 -69 37 -109 27
-49 -13 -63 -39 -33 -63 42 -35 99 -44 148 -25 60 23 87 64 92 139 l5 60 -35
-37 c-22 -23 -45 -37 -60 -37 -32 0 -62 32 -54 57 11 35 69 118 73 106 2 -7
-7 -29 -21 -50z m-752 -78 l-25 -34 23 -14 c49 -32 68 -31 99 2 34 38 91 44
109 12 15 -29 -30 -61 -85 -61 -35 0 -44 -4 -54 -26 -15 -34 -11 -38 25 -19
60 31 124 13 124 -35 0 -37 -48 -79 -167 -144 -98 -55 -143 -91 -143 -117 0
-61 122 -67 180 -9 17 17 19 24 9 36 -23 28 -79 13 -76 -21 2 -23 -38 -34 -57
-15 -8 9 -4 18 19 36 37 29 88 40 121 25 77 -35 -54 -146 -150 -127 -42 9 -66
34 -66 71 0 42 31 70 155 140 147 83 183 123 130 147 -38 17 -111 -14 -161
-69 -47 -51 -71 -43 -26 9 16 18 38 51 49 72 l20 39 -46 24 c-44 22 -47 22
-61 4 -98 -120 -100 -124 -89 -137 15 -18 63 -18 78 -1 6 8 8 17 4 20 -11 12
-23 8 -23 -8 0 -16 -25 -21 -34 -6 -4 5 -3 17 0 26 9 21 63 16 78 -7 27 -44
-81 -85 -120 -46 -25 25 -11 60 53 129 l57 61 -23 19 c-29 23 -19 39 12 20 19
-13 23 -11 45 17 14 18 28 29 33 26 5 -3 -2 -20 -17 -39z m-224 21 c0 -20 -19
-31 -32 -18 -6 6 -7 15 -4 21 10 16 36 13 36 -3z m144 -58 c14 -23 -10 -48
-49 -51 -21 -1 -30 3 -33 16 -3 15 2 18 27 15 32 -3 49 14 19 20 -37 7 -179
-94 -193 -138 -4 -11 -11 -20 -16 -20 -20 0 -7 34 26 72 20 21 41 50 47 64 11
23 38 34 38 14 0 -5 -5 -10 -12 -10 -6 0 -9 -2 -6 -5 3 -4 23 6 44 20 43 29
90 30 108 3z m-184 5 c0 -5 -20 -34 -45 -65 -25 -32 -45 -62 -45 -68 0 -5 -7
-10 -15 -10 -24 0 -17 24 16 56 17 16 39 44 51 62 18 29 38 42 38 25z m730
-79 c0 -17 -40 -78 -94 -143 -53 -64 -42 -96 15 -42 28 28 79 51 110 51 26 0
89 -21 89 -30 0 -3 -16 -20 -35 -39 -39 -38 -42 -46 -19 -55 13 -5 14 -9 4
-21 -13 -16 -40 -10 -40 9 0 8 -18 13 -52 14 -109 2 -138 11 -138 43 0 16 -3
18 -19 9 -45 -24 -131 -4 -131 30 0 15 53 59 96 80 48 24 82 25 111 5 21 -15
23 -14 53 37 16 29 30 56 30 61 0 4 5 7 10 7 6 0 10 -7 10 -16z m170 -181 c0
-3 -11 -21 -25 -39 -28 -37 -32 -62 -10 -70 31 -12 62 6 86 51 34 63 53 60 44
-7 -14 -114 -88 -211 -184 -242 -114 -38 -243 -23 -293 33 -80 89 18 214 141
181 99 -27 122 -113 41 -155 -37 -19 -70 -19 -98 1 -38 27 -44 49 -21 78 29
37 73 33 77 -7 3 -23 0 -28 -15 -25 -11 2 -17 11 -15 22 4 21 -17 17 -32 -6
-16 -26 10 -48 58 -48 48 0 66 13 66 50 0 48 -34 70 -105 70 -38 0 -52 -5 -76
-29 -32 -33 -36 -58 -14 -101 23 -44 86 -64 187 -58 124 7 193 50 237 148 27
58 27 84 0 48 -38 -52 -119 -45 -119 10 0 28 44 102 60 102 6 0 10 -3 10 -7z
m-2330 -1047 c0 -3 -4 -8 -10 -11 -5 -3 -10 -1 -10 4 0 6 5 11 10 11 6 0 10
-2 10 -4z m3570 -54 c0 -5 -6 -17 -14 -28 -19 -25 -31 -12 -14 15 13 21 28 28
28 13z m-3532 -257 c-3 -3 -9 2 -12 12 -6 14 -5 15 5 6 7 -7 10 -15 7 -18z
m3465 -13 c-3 -12 -9 -22 -14 -22 -12 0 -11 7 3 30 15 24 19 21 11 -8z m-39
-83 c-27 -53 -44 -63 -22 -13 11 27 37 64 44 64 2 0 -8 -23 -22 -51z m-2704
-655 c0 -2 -7 -4 -15 -4 -8 0 -15 4 -15 10 0 5 7 7 15 4 8 -4 15 -8 15 -10z
m0 -54 c0 -5 -2 -10 -4 -10 -3 0 -8 5 -11 10 -3 6 -1 10 4 10 6 0 11 -4 11
-10z m33 -55 c-3 -9 -8 -14 -10 -11 -3 3 -2 9 2 15 9 16 15 13 8 -4z"/>
<path d="M3028 4229 c-27 -23 -48 -45 -48 -49 0 -13 91 9 125 30 55 34 55 60
1 60 -21 -1 -46 -13 -78 -41z"/>
<path d="M2610 4172 c-97 -48 -66 -152 45 -152 56 0 97 23 153 86 l53 59 -48
12 c-70 18 -162 16 -203 -5z"/>
<path d="M3105 4008 c-51 -26 -75 -47 -75 -66 0 -11 11 -14 51 -10 41 4 57 12
90 44 28 27 35 40 26 46 -20 13 -50 8 -92 -14z"/>
<path d="M3512 3921 c-23 -4 -39 -16 -54 -40 l-22 -34 22 12 c47 25 105 3 66
-26 -16 -12 -19 -12 -22 1 -4 20 -26 20 -42 1 -10 -12 -10 -18 1 -31 10 -12
25 -15 58 -11 36 4 52 13 78 41 18 20 33 43 33 51 0 14 -58 47 -77 44 -4 -1
-23 -4 -41 -8z"/>
<path d="M3170 3858 c-28 -29 -46 -54 -40 -56 13 -5 52 29 82 71 35 48 13 40
-42 -15z"/>
<path d="M3348 3795 c-27 -24 -48 -46 -48 -49 0 -16 29 -2 56 27 72 78 67 92
-8 22z"/>
<path d="M2330 3830 c0 -5 11 -10 25 -10 14 0 25 5 25 10 0 6 -11 10 -25 10
-14 0 -25 -4 -25 -10z"/>
<path d="M3042 3728 c-18 -18 -15 -28 9 -28 25 0 59 17 59 30 0 14 -54 12 -68
-2z"/>
<path d="M3208 3560 c-42 -12 -98 -50 -98 -65 0 -38 92 -27 141 16 33 28 33
29 15 44 -22 17 -20 17 -58 5z"/>
<path d="M3360 3488 c-51 -27 -59 -42 -30 -58 28 -15 79 2 111 36 20 21 21 27
9 34 -23 15 -42 12 -90 -12z"/>
<path d="M0 605 c0 -33 2 -35 35 -35 34 0 35 -1 35 -40 0 -39 -1 -40 -35 -40
-34 0 -35 -1 -35 -40 0 -39 1 -40 35 -40 34 0 35 -1 35 -40 0 -39 -1 -40 -35
-40 -34 0 -35 -1 -35 -40 0 -39 1 -40 35 -40 34 0 35 -1 35 -40 0 -39 -1 -40
-35 -40 -34 0 -35 -1 -35 -40 0 -39 1 -40 35 -40 34 0 35 -1 35 -39 0 -39 -1
-40 -37 -43 -21 -2 1312 -3 2962 -3 l3000 0 1 255 c1 140 -1 283 -3 318 l-5
62 -39 0 c-38 0 -39 -1 -39 -35 0 -34 -1 -35 -40 -35 -39 0 -40 1 -40 35 0 34
-1 35 -40 35 -39 0 -40 -1 -40 -35 0 -34 -1 -35 -40 -35 -39 0 -40 1 -40 35 0
34 -1 35 -40 35 -39 0 -40 -1 -40 -35 0 -34 -1 -35 -40 -35 -39 0 -40 1 -40
35 0 34 -1 35 -40 35 -39 0 -40 -1 -40 -35 0 -34 -1 -35 -40 -35 -39 0 -40 1
-40 35 0 34 -1 35 -40 35 -39 0 -40 -1 -40 -35 0 -34 -1 -35 -40 -35 -39 0
-40 1 -40 35 0 34 -1 35 -40 35 -39 0 -40 -1 -40 -35 0 -34 -1 -35 -40 -35
-39 0 -40 1 -40 35 0 34 -1 35 -40 35 -39 0 -40 -1 -40 -35 0 -34 -1 -35 -40
-35 -39 0 -40 1 -40 35 0 34 -1 35 -40 35 -39 0 -40 -1 -40 -35 0 -34 -1 -35
-40 -35 -39 0 -40 1 -40 35 0 34 -1 35 -40 35 -39 0 -40 -1 -40 -35 0 -34 -1
-35 -40 -35 -39 0 -40 1 -40 35 0 34 -1 35 -40 35 -39 0 -40 -1 -40 -35 0 -34
-1 -35 -40 -35 -39 0 -40 1 -40 35 0 34 -1 35 -40 35 -39 0 -40 -1 -40 -35 0
-34 -1 -35 -40 -35 -39 0 -40 1 -40 35 0 34 -1 35 -40 35 -39 0 -40 -1 -40
-35 0 -34 -1 -35 -40 -35 -39 0 -40 1 -40 35 0 34 -1 35 -40 35 -39 0 -40 -1
-40 -35 0 -34 -1 -35 -40 -35 -39 0 -40 1 -40 35 0 34 -1 35 -40 35 -39 0 -40
-1 -40 -35 0 -34 -1 -35 -40 -35 -39 0 -40 1 -40 35 0 34 -1 35 -40 35 -39 0
-40 -1 -40 -35 0 -34 -1 -35 -40 -35 -39 0 -40 1 -40 35 0 34 -1 35 -40 35
-39 0 -40 -1 -40 -35 0 -34 -1 -35 -40 -35 -39 0 -40 1 -40 35 0 34 -1 35 -40
35 -39 0 -40 -1 -40 -35 0 -34 -1 -35 -40 -35 -39 0 -40 1 -40 35 0 34 -1 35
-40 35 -39 0 -40 -1 -40 -35 0 -34 -1 -35 -40 -35 -39 0 -40 1 -40 35 0 34 -1
35 -40 35 -39 0 -40 -1 -40 -35 0 -34 -1 -35 -40 -35 -39 0 -40 1 -40 35 0 34
-1 35 -40 35 -39 0 -40 -1 -40 -35 0 -34 -1 -35 -40 -35 -39 0 -40 1 -40 35 0
34 -1 35 -40 35 -39 0 -40 -1 -40 -35 0 -34 -1 -35 -40 -35 -39 0 -40 1 -40
35 0 34 -1 35 -40 35 -39 0 -40 -1 -40 -35 0 -34 -1 -35 -40 -35 -39 0 -40 1
-40 35 0 34 -1 35 -40 35 -39 0 -40 -1 -40 -35 0 -34 -1 -35 -40 -35 -39 0
-40 1 -40 35 0 34 -1 35 -40 35 -39 0 -40 -1 -40 -35 0 -34 -1 -35 -40 -35
-39 0 -40 1 -40 35 0 34 -1 35 -40 35 -39 0 -40 -1 -40 -35 0 -34 -1 -35 -40
-35 -39 0 -40 1 -40 35 0 34 -1 35 -40 35 -39 0 -40 -1 -40 -35 0 -34 -1 -35
-40 -35 -39 0 -40 1 -40 35 0 34 -1 35 -40 35 -39 0 -40 -1 -40 -35 0 -34 -1
-35 -40 -35 -39 0 -40 1 -40 35 0 34 -1 35 -40 35 -39 0 -40 -1 -40 -35 0 -34
-1 -35 -40 -35 -39 0 -40 1 -40 35 0 34 -1 35 -40 35 -39 0 -40 -1 -40 -35 0
-34 -1 -35 -40 -35 -39 0 -40 1 -40 35 0 34 -1 35 -40 35 -39 0 -40 -1 -40
-35 0 -34 -1 -35 -40 -35 -39 0 -40 1 -40 35 0 34 -1 35 -40 35 -39 0 -40 -1
-40 -35 0 -34 -1 -35 -40 -35 -39 0 -40 1 -40 35 0 34 -1 35 -40 35 -39 0 -40
-1 -40 -35 0 -34 -1 -35 -40 -35 -39 0 -40 1 -40 35 0 34 -1 35 -40 35 -39 0
-40 -1 -40 -35 0 -34 -1 -35 -40 -35 -39 0 -40 1 -40 35 0 34 -1 35 -40 35
-39 0 -40 -1 -40 -35 0 -34 -1 -35 -40 -35 -39 0 -40 1 -40 35 0 34 -1 35 -40
35 -39 0 -40 -1 -40 -35 0 -34 -1 -35 -40 -35 -39 0 -40 1 -40 35 0 34 -1 35
-40 35 -39 0 -40 -1 -40 -35 0 -34 -1 -35 -40 -35 -39 0 -40 1 -40 35 0 34 -1
35 -40 35 -39 0 -40 -1 -40 -35 0 -34 -1 -35 -40 -35 -39 0 -40 1 -40 35 0 33
-2 35 -35 35 -33 0 -35 -2 -35 -35z m230 -75 l0 -40 40 0 40 0 0 40 0 40 40 0
40 0 0 -40 0 -40 40 0 40 0 0 40 0 40 40 0 40 0 0 -40 0 -40 40 0 40 0 0 40 0
40 40 0 40 0 0 -40 0 -40 40 0 40 0 0 40 0 40 40 0 40 0 0 -40 0 -40 40 0 40
0 0 40 0 40 40 0 40 0 0 -40 0 -40 40 0 40 0 0 40 0 40 40 0 40 0 0 -40 0 -40
40 0 40 0 0 40 0 40 40 0 40 0 0 -40 0 -40 40 0 40 0 0 40 0 40 40 0 40 0 0
-40 0 -40 40 0 40 0 0 40 0 40 40 0 40 0 0 -40 0 -40 40 0 40 0 0 40 0 40 40
0 40 0 0 -40 0 -40 40 0 40 0 0 40 0 40 40 0 40 0 0 -40 0 -40 40 0 40 0 0 40
0 40 40 0 40 0 0 -40 0 -40 40 0 40 0 0 40 0 40 40 0 40 0 0 -40 0 -40 40 0
40 0 0 40 0 40 40 0 40 0 0 -40 0 -40 40 0 40 0 0 40 0 40 40 0 40 0 0 -40 0
-40 40 0 40 0 0 40 0 40 40 0 40 0 0 -40 0 -40 40 0 40 0 0 40 0 40 40 0 40 0
0 -40 0 -40 40 0 40 0 0 40 0 40 40 0 40 0 0 -40 0 -40 40 0 40 0 0 40 0 40
40 0 40 0 0 -40 0 -40 40 0 40 0 0 40 0 40 40 0 40 0 0 -40 0 -40 40 0 40 0 0
40 0 40 40 0 40 0 0 -40 0 -40 40 0 40 0 0 40 0 40 40 0 40 0 0 -40 0 -40 40
0 40 0 0 40 0 40 40 0 40 0 0 -40 0 -40 40 0 40 0 0 40 0 40 40 0 40 0 0 -40
0 -40 40 0 40 0 0 40 0 40 40 0 40 0 0 -40 0 -40 40 0 40 0 0 40 0 40 40 0 40
0 0 -40 0 -40 40 0 40 0 0 40 0 40 40 0 40 0 0 -40 0 -40 40 0 40 0 0 40 0 40
40 0 40 0 0 -40 0 -40 40 0 40 0 0 40 0 40 40 0 40 0 0 -40 0 -40 40 0 40 0 0
40 0 40 40 0 40 0 0 -40 0 -40 40 0 40 0 0 40 0 40 40 0 40 0 0 -40 0 -40 40
0 40 0 0 40 0 40 40 0 40 0 0 -40 0 -40 40 0 40 0 0 40 0 40 40 0 40 0 0 -40
0 -40 40 0 40 0 0 40 0 40 40 0 40 0 0 -40 0 -40 40 0 40 0 0 40 0 40 40 0 40
0 0 -40 0 -40 40 0 40 0 0 40 0 40 40 0 40 0 0 -40 0 -40 -40 0 -40 0 0 -40 0
-40 40 0 40 0 0 -40 0 -40 -40 0 -40 0 0 -40 0 -40 40 0 40 0 0 -40 0 -40 -40
0 -40 0 0 -40 0 -40 40 0 40 0 0 -40 0 -40 -40 0 -40 0 0 40 0 40 -40 0 -40 0
0 -40 0 -40 -40 0 -40 0 0 40 0 40 -40 0 -40 0 0 -40 0 -40 -40 0 -40 0 0 40
0 40 -40 0 -40 0 0 -40 0 -40 -40 0 -40 0 0 40 0 40 -40 0 -40 0 0 -40 0 -40
-40 0 -40 0 0 40 0 40 -40 0 -40 0 0 -40 0 -40 -40 0 -40 0 0 40 0 40 -40 0
-40 0 0 -40 0 -40 -40 0 -40 0 0 40 0 40 -40 0 -40 0 0 -40 0 -40 -40 0 -40 0
0 40 0 40 -40 0 -40 0 0 -40 0 -40 -40 0 -40 0 0 40 0 40 -40 0 -40 0 0 -40 0
-40 -40 0 -40 0 0 40 0 40 -40 0 -40 0 0 -40 0 -40 -40 0 -40 0 0 40 0 40 -40
0 -40 0 0 -40 0 -40 -40 0 -40 0 0 40 0 40 -40 0 -40 0 0 -40 0 -40 -40 0 -40
0 0 40 0 40 -40 0 -40 0 0 -40 0 -40 -40 0 -40 0 0 40 0 40 -40 0 -40 0 0 -40
0 -40 -40 0 -40 0 0 40 0 40 -40 0 -40 0 0 -40 0 -40 -40 0 -40 0 0 40 0 40
-40 0 -40 0 0 -40 0 -40 -40 0 -40 0 0 40 0 40 -40 0 -40 0 0 -40 0 -40 -40 0
-40 0 0 40 0 40 -40 0 -40 0 0 -40 0 -40 -40 0 -40 0 0 40 0 40 -40 0 -40 0 0
-40 0 -40 -40 0 -40 0 0 40 0 40 -40 0 -40 0 0 -40 0 -40 -40 0 -40 0 0 40 0
40 -40 0 -40 0 0 -40 0 -40 -40 0 -40 0 0 40 0 40 -40 0 -40 0 0 -40 0 -40
-40 0 -40 0 0 40 0 40 -40 0 -40 0 0 -40 0 -40 -40 0 -40 0 0 40 0 40 -40 0
-40 0 0 -40 0 -40 -40 0 -40 0 0 40 0 40 -40 0 -40 0 0 -40 0 -40 -40 0 -40 0
0 40 0 40 -40 0 -40 0 0 -40 0 -40 -40 0 -40 0 0 40 0 40 -40 0 -40 0 0 -40 0
-40 -40 0 -40 0 0 40 0 40 -40 0 -40 0 0 -40 0 -40 -40 0 -40 0 0 40 0 40 -40
0 -40 0 0 -40 0 -40 -40 0 -40 0 0 40 0 40 -40 0 -40 0 0 -40 0 -40 -40 0 -40
0 0 40 0 40 -40 0 -40 0 0 -40 0 -40 -40 0 -40 0 0 40 0 40 -40 0 -40 0 0 -40
0 -40 -40 0 -40 0 0 40 0 40 -40 0 -40 0 0 -40 0 -40 -40 0 -40 0 0 40 0 40
-40 0 -40 0 0 -40 0 -40 -40 0 -40 0 0 40 0 40 -40 0 -40 0 0 -40 0 -40 -40 0
-40 0 0 40 0 40 -40 0 -40 0 0 -40 0 -40 -40 0 -40 0 0 40 0 40 -40 0 -40 0 0
40 0 40 40 0 40 0 0 40 0 40 -40 0 -40 0 0 40 0 40 40 0 40 0 0 40 0 40 -40 0
-40 0 0 40 0 40 40 0 40 0 0 40 0 40 40 0 40 0 0 -40z"/>
<path d="M150 450 l0 -40 40 0 40 0 0 -40 0 -40 -40 0 -40 0 0 -40 0 -40 40 0
40 0 0 -40 0 -40 -40 0 -40 0 0 -40 0 -40 40 0 40 0 0 40 0 40 40 0 40 0 0
-40 0 -40 40 0 40 0 0 40 0 40 40 0 40 0 0 -40 0 -40 40 0 40 0 0 40 0 40 40
0 40 0 0 -40 0 -40 40 0 40 0 0 40 0 40 40 0 40 0 0 -40 0 -40 40 0 40 0 0 40
0 40 40 0 40 0 0 -40 0 -40 40 0 40 0 0 40 0 40 40 0 40 0 0 -40 0 -40 40 0
40 0 0 40 0 40 40 0 40 0 0 -40 0 -40 40 0 40 0 0 40 0 40 40 0 40 0 0 -40 0
-40 40 0 40 0 0 40 0 40 40 0 40 0 0 -40 0 -40 40 0 40 0 0 40 0 40 40 0 40 0
0 -40 0 -40 40 0 40 0 0 40 0 40 40 0 40 0 0 -40 0 -40 40 0 40 0 0 40 0 40
40 0 40 0 0 -40 0 -40 40 0 40 0 0 40 0 40 40 0 40 0 0 -40 0 -40 40 0 40 0 0
40 0 40 40 0 40 0 0 -40 0 -40 40 0 40 0 0 40 0 40 40 0 40 0 0 -40 0 -40 40
0 40 0 0 40 0 40 40 0 40 0 0 -40 0 -40 40 0 40 0 0 40 0 40 40 0 40 0 0 -40
0 -40 40 0 40 0 0 40 0 40 40 0 40 0 0 -40 0 -40 40 0 40 0 0 40 0 40 40 0 40
0 0 -40 0 -40 40 0 40 0 0 40 0 40 40 0 40 0 0 -40 0 -40 40 0 40 0 0 40 0 40
40 0 40 0 0 -40 0 -40 40 0 40 0 0 40 0 40 40 0 40 0 0 -40 0 -40 40 0 40 0 0
40 0 40 40 0 40 0 0 -40 0 -40 40 0 40 0 0 40 0 40 40 0 40 0 0 -40 0 -40 40
0 40 0 0 40 0 40 40 0 40 0 0 -40 0 -40 40 0 40 0 0 40 0 40 40 0 40 0 0 -40
0 -40 40 0 40 0 0 40 0 40 40 0 40 0 0 -40 0 -40 40 0 40 0 0 40 0 40 40 0 40
0 0 -40 0 -40 40 0 40 0 0 40 0 40 40 0 40 0 0 -40 0 -40 40 0 40 0 0 40 0 40
40 0 40 0 0 -40 0 -40 40 0 40 0 0 40 0 40 40 0 40 0 0 -40 0 -40 40 0 40 0 0
40 0 40 40 0 40 0 0 -40 0 -40 40 0 40 0 0 40 0 40 40 0 40 0 0 -40 0 -40 40
0 40 0 0 40 0 40 40 0 40 0 0 -40 0 -40 40 0 40 0 0 40 0 40 40 0 40 0 0 -40
0 -40 40 0 40 0 0 40 0 40 40 0 40 0 0 40 0 40 -40 0 -40 0 0 40 0 40 40 0 40
0 0 40 0 40 -40 0 -40 0 0 40 0 40 -40 0 -40 0 0 -40 0 -40 -40 0 -40 0 0 40
0 40 -40 0 -40 0 0 -40 0 -40 -40 0 -40 0 0 40 0 40 -40 0 -40 0 0 -40 0 -40
-40 0 -40 0 0 40 0 40 -40 0 -40 0 0 -40 0 -40 -40 0 -40 0 0 40 0 40 -40 0
-40 0 0 -40 0 -40 -40 0 -40 0 0 40 0 40 -40 0 -40 0 0 -40 0 -40 -40 0 -40 0
0 40 0 40 -40 0 -40 0 0 -40 0 -40 -40 0 -40 0 0 40 0 40 -40 0 -40 0 0 -40 0
-40 -40 0 -40 0 0 40 0 40 -40 0 -40 0 0 -40 0 -40 -40 0 -40 0 0 40 0 40 -40
0 -40 0 0 -40 0 -40 -40 0 -40 0 0 40 0 40 -40 0 -40 0 0 -40 0 -40 -40 0 -40
0 0 40 0 40 -40 0 -40 0 0 -40 0 -40 -40 0 -40 0 0 40 0 40 -40 0 -40 0 0 -40
0 -40 -40 0 -40 0 0 40 0 40 -40 0 -40 0 0 -40 0 -40 -40 0 -40 0 0 40 0 40
-40 0 -40 0 0 -40 0 -40 -40 0 -40 0 0 40 0 40 -40 0 -40 0 0 -40 0 -40 -40 0
-40 0 0 40 0 40 -40 0 -40 0 0 -40 0 -40 -40 0 -40 0 0 40 0 40 -40 0 -40 0 0
-40 0 -40 -40 0 -40 0 0 40 0 40 -40 0 -40 0 0 -40 0 -40 -40 0 -40 0 0 40 0
40 -40 0 -40 0 0 -40 0 -40 -40 0 -40 0 0 40 0 40 -40 0 -40 0 0 -40 0 -40
-40 0 -40 0 0 40 0 40 -40 0 -40 0 0 -40 0 -40 -40 0 -40 0 0 40 0 40 -40 0
-40 0 0 -40 0 -40 -40 0 -40 0 0 40 0 40 -40 0 -40 0 0 -40 0 -40 -40 0 -40 0
0 40 0 40 -40 0 -40 0 0 -40 0 -40 -40 0 -40 0 0 40 0 40 -40 0 -40 0 0 -40 0
-40 -40 0 -40 0 0 40 0 40 -40 0 -40 0 0 -40 0 -40 -40 0 -40 0 0 40 0 40 -40
0 -40 0 0 -40 0 -40 -40 0 -40 0 0 40 0 40 -40 0 -40 0 0 -40 0 -40 -40 0 -40
0 0 40 0 40 -40 0 -40 0 0 -40 0 -40 -40 0 -40 0 0 40 0 40 -40 0 -40 0 0 -40
0 -40 -40 0 -40 0 0 40 0 40 -40 0 -40 0 0 -40 0 -40 -40 0 -40 0 0 40 0 40
-40 0 -40 0 0 -40 0 -40 -40 0 -40 0 0 40 0 40 -40 0 -40 0 0 -40 0 -40 -40 0
-40 0 0 40 0 40 -40 0 -40 0 0 -40 0 -40 -40 0 -40 0 0 40 0 40 -40 0 -40 0 0
-40z m240 -80 l0 -40 40 0 40 0 0 40 0 40 40 0 40 0 0 -40 0 -40 40 0 40 0 0
40 0 40 40 0 40 0 0 -40 0 -40 40 0 40 0 0 40 0 40 40 0 40 0 0 -40 0 -40 40
0 40 0 0 40 0 40 40 0 40 0 0 -40 0 -40 40 0 40 0 0 40 0 40 40 0 40 0 0 -40
0 -40 40 0 40 0 0 40 0 40 40 0 40 0 0 -40 0 -40 40 0 40 0 0 40 0 40 40 0 40
0 0 -40 0 -40 40 0 40 0 0 40 0 40 40 0 40 0 0 -40 0 -40 40 0 40 0 0 40 0 40
40 0 40 0 0 -40 0 -40 40 0 40 0 0 40 0 40 40 0 40 0 0 -40 0 -40 40 0 40 0 0
40 0 40 40 0 40 0 0 -40 0 -40 40 0 40 0 0 40 0 40 40 0 40 0 0 -40 0 -40 40
0 40 0 0 40 0 40 40 0 40 0 0 -40 0 -40 40 0 40 0 0 40 0 40 40 0 40 0 0 -40
0 -40 40 0 40 0 0 40 0 40 40 0 40 0 0 -40 0 -40 40 0 40 0 0 40 0 40 40 0 40
0 0 -40 0 -40 40 0 40 0 0 40 0 40 40 0 40 0 0 -40 0 -40 40 0 40 0 0 40 0 40
40 0 40 0 0 -40 0 -40 40 0 40 0 0 40 0 40 40 0 40 0 0 -40 0 -40 40 0 40 0 0
40 0 40 40 0 40 0 0 -40 0 -40 40 0 40 0 0 40 0 40 40 0 40 0 0 -40 0 -40 40
0 40 0 0 40 0 40 40 0 40 0 0 -40 0 -40 40 0 40 0 0 40 0 40 40 0 40 0 0 -40
0 -40 40 0 40 0 0 40 0 40 40 0 40 0 0 -40 0 -40 40 0 40 0 0 40 0 40 40 0 40
0 0 -40 0 -40 40 0 40 0 0 40 0 40 40 0 40 0 0 -40 0 -40 40 0 40 0 0 40 0 40
40 0 40 0 0 -40 0 -40 40 0 40 0 0 40 0 40 40 0 40 0 0 -40 0 -40 40 0 40 0 0
40 0 40 40 0 40 0 0 -40 0 -40 40 0 40 0 0 40 0 40 40 0 40 0 0 -40 0 -40 40
0 40 0 0 40 0 40 40 0 40 0 0 -40 0 -40 40 0 40 0 0 40 0 40 40 0 40 0 0 -40
0 -40 40 0 40 0 0 40 0 40 40 0 40 0 0 -40 0 -40 40 0 40 0 0 40 0 40 40 0 40
0 0 -40 0 -40 -40 0 -40 0 0 -40 0 -40 40 0 40 0 0 -40 0 -40 -40 0 -40 0 0
40 0 40 -40 0 -40 0 0 -40 0 -40 -40 0 -40 0 0 40 0 40 -40 0 -40 0 0 -40 0
-40 -40 0 -40 0 0 40 0 40 -40 0 -40 0 0 -40 0 -40 -40 0 -40 0 0 40 0 40 -40
0 -40 0 0 -40 0 -40 -40 0 -40 0 0 40 0 40 -40 0 -40 0 0 -40 0 -40 -40 0 -40
0 0 40 0 40 -40 0 -40 0 0 -40 0 -40 -40 0 -40 0 0 40 0 40 -40 0 -40 0 0 -40
0 -40 -40 0 -40 0 0 40 0 40 -40 0 -40 0 0 -40 0 -40 -40 0 -40 0 0 40 0 40
-40 0 -40 0 0 -40 0 -40 -40 0 -40 0 0 40 0 40 -40 0 -40 0 0 -40 0 -40 -40 0
-40 0 0 40 0 40 -40 0 -40 0 0 -40 0 -40 -40 0 -40 0 0 40 0 40 -40 0 -40 0 0
-40 0 -40 -40 0 -40 0 0 40 0 40 -40 0 -40 0 0 -40 0 -40 -40 0 -40 0 0 40 0
40 -40 0 -40 0 0 -40 0 -40 -40 0 -40 0 0 40 0 40 -40 0 -40 0 0 -40 0 -40
-40 0 -40 0 0 40 0 40 -40 0 -40 0 0 -40 0 -40 -40 0 -40 0 0 40 0 40 -40 0
-40 0 0 -40 0 -40 -40 0 -40 0 0 40 0 40 -40 0 -40 0 0 -40 0 -40 -40 0 -40 0
0 40 0 40 -40 0 -40 0 0 -40 0 -40 -40 0 -40 0 0 40 0 40 -40 0 -40 0 0 -40 0
-40 -40 0 -40 0 0 40 0 40 -40 0 -40 0 0 -40 0 -40 -40 0 -40 0 0 40 0 40 -40
0 -40 0 0 -40 0 -40 -40 0 -40 0 0 40 0 40 -40 0 -40 0 0 -40 0 -40 -40 0 -40
0 0 40 0 40 -40 0 -40 0 0 -40 0 -40 -40 0 -40 0 0 40 0 40 -40 0 -40 0 0 -40
0 -40 -40 0 -40 0 0 40 0 40 -40 0 -40 0 0 -40 0 -40 -40 0 -40 0 0 40 0 40
-40 0 -40 0 0 -40 0 -40 -40 0 -40 0 0 40 0 40 -40 0 -40 0 0 -40 0 -40 -40 0
-40 0 0 40 0 40 -40 0 -40 0 0 -40 0 -40 -40 0 -40 0 0 40 0 40 -40 0 -40 0 0
-40 0 -40 -40 0 -40 0 0 40 0 40 -40 0 -40 0 0 -40 0 -40 -40 0 -40 0 0 40 0
40 -40 0 -40 0 0 -40 0 -40 -40 0 -40 0 0 40 0 40 -40 0 -40 0 0 -40 0 -40
-40 0 -40 0 0 40 0 40 -40 0 -40 0 0 -40 0 -40 -40 0 -40 0 0 40 0 40 -40 0
-40 0 0 40 0 40 40 0 40 0 0 40 0 40 40 0 40 0 0 -40z"/>
<path d="M310 290 l0 -40 40 0 40 0 0 40 0 40 -40 0 -40 0 0 -40z"/>
<path d="M470 290 l0 -40 40 0 40 0 0 40 0 40 -40 0 -40 0 0 -40z"/>
<path d="M630 290 l0 -40 40 0 40 0 0 40 0 40 -40 0 -40 0 0 -40z"/>
<path d="M790 290 l0 -40 40 0 40 0 0 40 0 40 -40 0 -40 0 0 -40z"/>
<path d="M950 290 l0 -40 40 0 40 0 0 40 0 40 -40 0 -40 0 0 -40z"/>
<path d="M1110 290 l0 -40 40 0 40 0 0 40 0 40 -40 0 -40 0 0 -40z"/>
<path d="M1270 290 l0 -40 40 0 40 0 0 40 0 40 -40 0 -40 0 0 -40z"/>
<path d="M1430 290 l0 -40 40 0 40 0 0 40 0 40 -40 0 -40 0 0 -40z"/>
<path d="M1590 290 l0 -40 40 0 40 0 0 40 0 40 -40 0 -40 0 0 -40z"/>
<path d="M1750 290 l0 -40 40 0 40 0 0 40 0 40 -40 0 -40 0 0 -40z"/>
<path d="M1910 290 l0 -40 40 0 40 0 0 40 0 40 -40 0 -40 0 0 -40z"/>
<path d="M2070 290 l0 -40 40 0 40 0 0 40 0 40 -40 0 -40 0 0 -40z"/>
<path d="M2230 290 l0 -40 40 0 40 0 0 40 0 40 -40 0 -40 0 0 -40z"/>
<path d="M2390 290 l0 -40 40 0 40 0 0 40 0 40 -40 0 -40 0 0 -40z"/>
<path d="M2550 290 l0 -40 40 0 40 0 0 40 0 40 -40 0 -40 0 0 -40z"/>
<path d="M2710 290 l0 -40 40 0 40 0 0 40 0 40 -40 0 -40 0 0 -40z"/>
<path d="M2870 290 l0 -40 40 0 40 0 0 40 0 40 -40 0 -40 0 0 -40z"/>
<path d="M3030 290 l0 -40 40 0 40 0 0 40 0 40 -40 0 -40 0 0 -40z"/>
<path d="M3190 290 l0 -40 40 0 40 0 0 40 0 40 -40 0 -40 0 0 -40z"/>
<path d="M3350 290 l0 -40 40 0 40 0 0 40 0 40 -40 0 -40 0 0 -40z"/>
<path d="M3510 290 l0 -40 40 0 40 0 0 40 0 40 -40 0 -40 0 0 -40z"/>
<path d="M3670 290 l0 -40 40 0 40 0 0 40 0 40 -40 0 -40 0 0 -40z"/>
<path d="M3830 290 l0 -40 40 0 40 0 0 40 0 40 -40 0 -40 0 0 -40z"/>
<path d="M3990 290 l0 -40 40 0 40 0 0 40 0 40 -40 0 -40 0 0 -40z"/>
<path d="M4150 290 l0 -40 40 0 40 0 0 40 0 40 -40 0 -40 0 0 -40z"/>
<path d="M4310 290 l0 -40 40 0 40 0 0 40 0 40 -40 0 -40 0 0 -40z"/>
<path d="M4470 290 l0 -40 40 0 40 0 0 40 0 40 -40 0 -40 0 0 -40z"/>
<path d="M4630 290 l0 -40 40 0 40 0 0 40 0 40 -40 0 -40 0 0 -40z"/>
<path d="M4790 290 l0 -40 40 0 40 0 0 40 0 40 -40 0 -40 0 0 -40z"/>
<path d="M4950 290 l0 -40 40 0 40 0 0 40 0 40 -40 0 -40 0 0 -40z"/>
<path d="M5110 290 l0 -40 40 0 40 0 0 40 0 40 -40 0 -40 0 0 -40z"/>
<path d="M5270 290 l0 -40 40 0 40 0 0 40 0 40 -40 0 -40 0 0 -40z"/>
<path d="M5430 290 l0 -40 40 0 40 0 0 40 0 40 -40 0 -40 0 0 -40z"/>
<path d="M5590 290 l0 -40 40 0 40 0 0 40 0 40 -40 0 -40 0 0 -40z"/>
</g>
</svg>
